<mxfile host="app.diagrams.net" modified="2023-07-16T15:57:08.734Z" agent="Mozilla/5.0 (Windows NT 10.0; Win64; x64) AppleWebKit/537.36 (KHTML, like Gecko) Chrome/114.0.0.0 Safari/537.36" etag="8366Ag_G5yknGKcknIKZ" version="21.6.2" type="github">
  <diagram name="Page-1" id="-nZ-POJCJtAreAiVzef5">
    <mxGraphModel dx="934" dy="561" grid="1" gridSize="10" guides="1" tooltips="1" connect="1" arrows="1" fold="1" page="1" pageScale="1" pageWidth="850" pageHeight="1100" math="0" shadow="0">
      <root>
        <mxCell id="0" />
        <mxCell id="1" parent="0" />
        <mxCell id="jRN0X2SPoFClaqLHsVGo-1" value="Pengguna" style="swimlane;whiteSpace=wrap;html=1;fontFamily=Ubuntu;fontSource=https%3A%2F%2Ffonts.googleapis.com%2Fcss%3Ffamily%3DUbuntu;rounded=0;swimlaneFillColor=none;glass=0;shadow=1;fillColor=none;fontColor=#333333;strokeColor=#666666;sketch=1;curveFitting=1;jiggle=2;startSize=30;fontSize=13;" vertex="1" parent="1">
          <mxGeometry x="180" y="120" width="300" height="680" as="geometry" />
        </mxCell>
        <mxCell id="jRN0X2SPoFClaqLHsVGo-2" value="" style="ellipse;html=1;shape=startState;fillColor=#f4f4f4;strokeColor=#000;strokeWidth=1;fillStyle=auto;fontColor=#595959;" vertex="1" parent="jRN0X2SPoFClaqLHsVGo-1">
          <mxGeometry x="135" y="40" width="30" height="30" as="geometry" />
        </mxCell>
        <mxCell id="jRN0X2SPoFClaqLHsVGo-3" value="" style="html=1;verticalAlign=bottom;endArrow=open;endSize=8;strokeColor=#000;rounded=0;strokeWidth=1;fillColor=#eeeeee;exitX=0.491;exitY=0.867;exitDx=0;exitDy=0;exitPerimeter=0;entryX=0.5;entryY=0;entryDx=0;entryDy=0;fontColor=#333333;" edge="1" parent="jRN0X2SPoFClaqLHsVGo-1" source="jRN0X2SPoFClaqLHsVGo-2" target="jRN0X2SPoFClaqLHsVGo-4">
          <mxGeometry relative="1" as="geometry">
            <mxPoint x="100" y="90" as="targetPoint" />
          </mxGeometry>
        </mxCell>
        <mxCell id="jRN0X2SPoFClaqLHsVGo-4" value="Tekan fitur Karnaugh Map" style="rounded=1;whiteSpace=wrap;html=1;fillColor=#f4f4f4;strokeColor=#000;fontFamily=Ubuntu;fontSource=https%3A%2F%2Ffonts.googleapis.com%2Fcss%3Ffamily%3DUbuntu;fontSize=10;fontColor=#000;fontStyle=1" vertex="1" parent="jRN0X2SPoFClaqLHsVGo-1">
          <mxGeometry x="107.5" y="83" width="85" height="30" as="geometry" />
        </mxCell>
        <mxCell id="jRN0X2SPoFClaqLHsVGo-5" style="rounded=0;orthogonalLoop=1;jettySize=auto;html=1;exitX=0.5;exitY=1;exitDx=0;exitDy=0;entryX=0.498;entryY=0.33;entryDx=0;entryDy=0;entryPerimeter=0;endArrow=open;endFill=0;strokeColor=#000;" edge="1" parent="jRN0X2SPoFClaqLHsVGo-1" source="jRN0X2SPoFClaqLHsVGo-6" target="jRN0X2SPoFClaqLHsVGo-10">
          <mxGeometry relative="1" as="geometry">
            <mxPoint x="110" y="180" as="targetPoint" />
          </mxGeometry>
        </mxCell>
        <mxCell id="jRN0X2SPoFClaqLHsVGo-6" value="Memilih Variabel KMAP" style="rounded=1;whiteSpace=wrap;html=1;fillColor=#f4f4f4;strokeColor=#000;fontFamily=Ubuntu;fontSource=https%3A%2F%2Ffonts.googleapis.com%2Fcss%3Ffamily%3DUbuntu;fontSize=10;fontColor=#000;fontStyle=1" vertex="1" parent="jRN0X2SPoFClaqLHsVGo-1">
          <mxGeometry x="107.5" y="130" width="85" height="30" as="geometry" />
        </mxCell>
        <mxCell id="jRN0X2SPoFClaqLHsVGo-7" style="edgeStyle=orthogonalEdgeStyle;rounded=1;orthogonalLoop=1;jettySize=auto;html=1;exitX=0;exitY=0.5;exitDx=0;exitDy=0;exitPerimeter=0;entryX=0.5;entryY=0;entryDx=0;entryDy=0;strokeColor=#000;endArrow=open;endFill=0;" edge="1" parent="jRN0X2SPoFClaqLHsVGo-1" source="jRN0X2SPoFClaqLHsVGo-10" target="jRN0X2SPoFClaqLHsVGo-12">
          <mxGeometry relative="1" as="geometry" />
        </mxCell>
        <mxCell id="jRN0X2SPoFClaqLHsVGo-8" style="edgeStyle=orthogonalEdgeStyle;rounded=1;orthogonalLoop=1;jettySize=auto;html=1;exitX=1;exitY=0.5;exitDx=0;exitDy=0;exitPerimeter=0;entryX=0.5;entryY=0;entryDx=0;entryDy=0;strokeColor=#000;endArrow=open;endFill=0;" edge="1" parent="jRN0X2SPoFClaqLHsVGo-1" source="jRN0X2SPoFClaqLHsVGo-10" target="jRN0X2SPoFClaqLHsVGo-16">
          <mxGeometry relative="1" as="geometry" />
        </mxCell>
        <mxCell id="jRN0X2SPoFClaqLHsVGo-9" style="rounded=0;orthogonalLoop=1;jettySize=auto;html=1;entryX=0.5;entryY=0;entryDx=0;entryDy=0;strokeColor=#000;endArrow=open;endFill=0;exitX=0.505;exitY=0.685;exitDx=0;exitDy=0;exitPerimeter=0;" edge="1" parent="jRN0X2SPoFClaqLHsVGo-1" source="jRN0X2SPoFClaqLHsVGo-10" target="jRN0X2SPoFClaqLHsVGo-14">
          <mxGeometry relative="1" as="geometry" />
        </mxCell>
        <mxCell id="jRN0X2SPoFClaqLHsVGo-10" value="" style="shape=line;html=1;strokeWidth=6;strokeColor=#000;shadow=0;" vertex="1" parent="jRN0X2SPoFClaqLHsVGo-1">
          <mxGeometry x="90" y="173" width="120" height="10" as="geometry" />
        </mxCell>
        <mxCell id="jRN0X2SPoFClaqLHsVGo-11" style="rounded=0;orthogonalLoop=1;jettySize=auto;html=1;exitX=0.5;exitY=1;exitDx=0;exitDy=0;entryX=0.505;entryY=0.343;entryDx=0;entryDy=0;entryPerimeter=0;endArrow=open;endFill=0;strokeColor=#000;" edge="1" parent="jRN0X2SPoFClaqLHsVGo-1" source="jRN0X2SPoFClaqLHsVGo-12" target="jRN0X2SPoFClaqLHsVGo-28">
          <mxGeometry relative="1" as="geometry" />
        </mxCell>
        <mxCell id="jRN0X2SPoFClaqLHsVGo-12" value="3 Variabel" style="rounded=1;whiteSpace=wrap;html=1;fillColor=#f4f4f4;strokeColor=#000;fontFamily=Ubuntu;fontSource=https%3A%2F%2Ffonts.googleapis.com%2Fcss%3Ffamily%3DUbuntu;fontSize=10;fontColor=#000;fontStyle=1" vertex="1" parent="jRN0X2SPoFClaqLHsVGo-1">
          <mxGeometry x="41" y="200" width="56" height="20" as="geometry" />
        </mxCell>
        <mxCell id="jRN0X2SPoFClaqLHsVGo-13" style="rounded=0;orthogonalLoop=1;jettySize=auto;html=1;exitX=0.5;exitY=1;exitDx=0;exitDy=0;entryX=0.505;entryY=0.318;entryDx=0;entryDy=0;entryPerimeter=0;endArrow=open;endFill=0;strokeColor=#000;" edge="1" parent="jRN0X2SPoFClaqLHsVGo-1" source="jRN0X2SPoFClaqLHsVGo-14" target="jRN0X2SPoFClaqLHsVGo-35">
          <mxGeometry relative="1" as="geometry" />
        </mxCell>
        <mxCell id="jRN0X2SPoFClaqLHsVGo-14" value="2 Variabel" style="rounded=1;whiteSpace=wrap;html=1;fillColor=#f4f4f4;strokeColor=#000;fontFamily=Ubuntu;fontSource=https%3A%2F%2Ffonts.googleapis.com%2Fcss%3Ffamily%3DUbuntu;fontSize=10;fontColor=#000;fontStyle=1" vertex="1" parent="jRN0X2SPoFClaqLHsVGo-1">
          <mxGeometry x="122" y="200" width="56" height="20" as="geometry" />
        </mxCell>
        <mxCell id="jRN0X2SPoFClaqLHsVGo-15" style="rounded=0;orthogonalLoop=1;jettySize=auto;html=1;exitX=0.5;exitY=1;exitDx=0;exitDy=0;entryX=0.507;entryY=0.364;entryDx=0;entryDy=0;entryPerimeter=0;strokeColor=#000;endArrow=open;endFill=0;" edge="1" parent="jRN0X2SPoFClaqLHsVGo-1" source="jRN0X2SPoFClaqLHsVGo-16" target="jRN0X2SPoFClaqLHsVGo-21">
          <mxGeometry relative="1" as="geometry" />
        </mxCell>
        <mxCell id="jRN0X2SPoFClaqLHsVGo-16" value="4 Variabel" style="rounded=1;whiteSpace=wrap;html=1;fillColor=#f4f4f4;strokeColor=#000;fontFamily=Ubuntu;fontSource=https%3A%2F%2Ffonts.googleapis.com%2Fcss%3Ffamily%3DUbuntu;fontSize=10;fontColor=#000;fontStyle=1" vertex="1" parent="jRN0X2SPoFClaqLHsVGo-1">
          <mxGeometry x="203" y="200" width="56" height="20" as="geometry" />
        </mxCell>
        <mxCell id="jRN0X2SPoFClaqLHsVGo-17" style="edgeStyle=orthogonalEdgeStyle;rounded=1;orthogonalLoop=1;jettySize=auto;html=1;exitX=1;exitY=0.5;exitDx=0;exitDy=0;entryX=1;entryY=0.5;entryDx=0;entryDy=0;entryPerimeter=0;endArrow=open;endFill=0;strokeColor=#000;" edge="1" parent="jRN0X2SPoFClaqLHsVGo-1" source="jRN0X2SPoFClaqLHsVGo-18" target="jRN0X2SPoFClaqLHsVGo-25">
          <mxGeometry relative="1" as="geometry">
            <Array as="points">
              <mxPoint x="290" y="270" />
              <mxPoint x="290" y="345" />
            </Array>
          </mxGeometry>
        </mxCell>
        <mxCell id="jRN0X2SPoFClaqLHsVGo-18" value="Menggeser layar ke kiri 2 kali" style="rounded=1;whiteSpace=wrap;html=1;fillColor=#f4f4f4;strokeColor=#4A5CFF;fontFamily=Ubuntu;fontSource=https%3A%2F%2Ffonts.googleapis.com%2Fcss%3Ffamily%3DUbuntu;fontSize=10;fontColor=#000;fontStyle=1" vertex="1" parent="jRN0X2SPoFClaqLHsVGo-1">
          <mxGeometry x="186" y="255" width="90" height="30" as="geometry" />
        </mxCell>
        <mxCell id="jRN0X2SPoFClaqLHsVGo-19" style="rounded=0;orthogonalLoop=1;jettySize=auto;html=1;entryX=0.5;entryY=0;entryDx=0;entryDy=0;exitX=0.5;exitY=0.662;exitDx=0;exitDy=0;exitPerimeter=0;strokeColor=#000;endArrow=open;endFill=0;" edge="1" parent="jRN0X2SPoFClaqLHsVGo-1" source="jRN0X2SPoFClaqLHsVGo-21" target="jRN0X2SPoFClaqLHsVGo-18">
          <mxGeometry relative="1" as="geometry" />
        </mxCell>
        <mxCell id="jRN0X2SPoFClaqLHsVGo-20" style="edgeStyle=orthogonalEdgeStyle;rounded=1;orthogonalLoop=1;jettySize=auto;html=1;exitX=0;exitY=0.5;exitDx=0;exitDy=0;exitPerimeter=0;entryX=0;entryY=0.5;entryDx=0;entryDy=0;endArrow=open;endFill=0;strokeColor=#000;" edge="1" parent="jRN0X2SPoFClaqLHsVGo-1" source="jRN0X2SPoFClaqLHsVGo-21" target="jRN0X2SPoFClaqLHsVGo-23">
          <mxGeometry relative="1" as="geometry">
            <Array as="points">
              <mxPoint x="170" y="235" />
              <mxPoint x="170" y="308" />
            </Array>
          </mxGeometry>
        </mxCell>
        <mxCell id="jRN0X2SPoFClaqLHsVGo-21" value="" style="shape=line;html=1;strokeWidth=6;strokeColor=#4A5CFF;" vertex="1" parent="jRN0X2SPoFClaqLHsVGo-1">
          <mxGeometry x="206" y="230" width="50" height="10" as="geometry" />
        </mxCell>
        <mxCell id="jRN0X2SPoFClaqLHsVGo-22" style="rounded=0;orthogonalLoop=1;jettySize=auto;html=1;exitX=0.5;exitY=1;exitDx=0;exitDy=0;entryX=0.502;entryY=0.326;entryDx=0;entryDy=0;entryPerimeter=0;endArrow=open;endFill=0;strokeColor=#000;" edge="1" parent="jRN0X2SPoFClaqLHsVGo-1" source="jRN0X2SPoFClaqLHsVGo-23" target="jRN0X2SPoFClaqLHsVGo-25">
          <mxGeometry relative="1" as="geometry" />
        </mxCell>
        <mxCell id="jRN0X2SPoFClaqLHsVGo-23" value="Mengetuk tab kmap 4 variabel" style="rounded=1;whiteSpace=wrap;html=1;fillColor=#f4f4f4;strokeColor=#4A5CFF;fontFamily=Ubuntu;fontSource=https%3A%2F%2Ffonts.googleapis.com%2Fcss%3Ffamily%3DUbuntu;fontSize=10;fontColor=#000;fontStyle=1" vertex="1" parent="jRN0X2SPoFClaqLHsVGo-1">
          <mxGeometry x="188" y="293" width="88" height="30" as="geometry" />
        </mxCell>
        <mxCell id="jRN0X2SPoFClaqLHsVGo-24" style="edgeStyle=orthogonalEdgeStyle;rounded=1;orthogonalLoop=1;jettySize=auto;html=1;entryX=1;entryY=0.5;entryDx=0;entryDy=0;entryPerimeter=0;exitX=0.496;exitY=0.676;exitDx=0;exitDy=0;exitPerimeter=0;endArrow=open;endFill=0;strokeColor=#000;" edge="1" parent="jRN0X2SPoFClaqLHsVGo-1" source="jRN0X2SPoFClaqLHsVGo-25" target="jRN0X2SPoFClaqLHsVGo-35">
          <mxGeometry relative="1" as="geometry">
            <Array as="points">
              <mxPoint x="231" y="365" />
            </Array>
          </mxGeometry>
        </mxCell>
        <mxCell id="jRN0X2SPoFClaqLHsVGo-25" value="" style="shape=line;html=1;strokeWidth=6;strokeColor=#4A5CFF;" vertex="1" parent="jRN0X2SPoFClaqLHsVGo-1">
          <mxGeometry x="206" y="340" width="50" height="10" as="geometry" />
        </mxCell>
        <mxCell id="jRN0X2SPoFClaqLHsVGo-26" style="rounded=0;orthogonalLoop=1;jettySize=auto;html=1;endArrow=open;endFill=0;exitX=0.502;exitY=0.659;exitDx=0;exitDy=0;exitPerimeter=0;strokeColor=#000;" edge="1" parent="jRN0X2SPoFClaqLHsVGo-1" source="jRN0X2SPoFClaqLHsVGo-28" target="jRN0X2SPoFClaqLHsVGo-30">
          <mxGeometry relative="1" as="geometry" />
        </mxCell>
        <mxCell id="jRN0X2SPoFClaqLHsVGo-27" style="edgeStyle=orthogonalEdgeStyle;rounded=1;orthogonalLoop=1;jettySize=auto;html=1;exitX=0;exitY=0.5;exitDx=0;exitDy=0;exitPerimeter=0;entryX=0;entryY=0.5;entryDx=0;entryDy=0;endArrow=open;endFill=0;strokeColor=#000;" edge="1" parent="jRN0X2SPoFClaqLHsVGo-1" source="jRN0X2SPoFClaqLHsVGo-28" target="jRN0X2SPoFClaqLHsVGo-32">
          <mxGeometry relative="1" as="geometry">
            <Array as="points">
              <mxPoint x="10" y="235" />
              <mxPoint x="10" y="308" />
            </Array>
          </mxGeometry>
        </mxCell>
        <mxCell id="jRN0X2SPoFClaqLHsVGo-28" value="" style="shape=line;html=1;strokeWidth=6;strokeColor=#FF4D64;" vertex="1" parent="jRN0X2SPoFClaqLHsVGo-1">
          <mxGeometry x="44" y="230" width="50" height="10" as="geometry" />
        </mxCell>
        <mxCell id="jRN0X2SPoFClaqLHsVGo-29" style="edgeStyle=orthogonalEdgeStyle;rounded=1;orthogonalLoop=1;jettySize=auto;html=1;exitX=1;exitY=0.5;exitDx=0;exitDy=0;entryX=1;entryY=0.5;entryDx=0;entryDy=0;entryPerimeter=0;endArrow=open;endFill=0;strokeColor=#000;" edge="1" parent="jRN0X2SPoFClaqLHsVGo-1" source="jRN0X2SPoFClaqLHsVGo-30" target="jRN0X2SPoFClaqLHsVGo-34">
          <mxGeometry relative="1" as="geometry" />
        </mxCell>
        <mxCell id="jRN0X2SPoFClaqLHsVGo-30" value="Menggeser layar ke kiri 1 kali" style="rounded=1;whiteSpace=wrap;html=1;fillColor=#f4f4f4;strokeColor=#FF4D64;fontFamily=Ubuntu;fontSource=https%3A%2F%2Ffonts.googleapis.com%2Fcss%3Ffamily%3DUbuntu;fontSize=10;fontColor=#000;fontStyle=1" vertex="1" parent="jRN0X2SPoFClaqLHsVGo-1">
          <mxGeometry x="24" y="255" width="90" height="30" as="geometry" />
        </mxCell>
        <mxCell id="jRN0X2SPoFClaqLHsVGo-31" style="rounded=0;orthogonalLoop=1;jettySize=auto;html=1;entryX=0.507;entryY=0.384;entryDx=0;entryDy=0;entryPerimeter=0;endArrow=open;endFill=0;strokeColor=#000;" edge="1" parent="jRN0X2SPoFClaqLHsVGo-1" source="jRN0X2SPoFClaqLHsVGo-32" target="jRN0X2SPoFClaqLHsVGo-34">
          <mxGeometry relative="1" as="geometry" />
        </mxCell>
        <mxCell id="jRN0X2SPoFClaqLHsVGo-32" value="Mengetuk tab kmap 3 variabel" style="rounded=1;whiteSpace=wrap;html=1;fillColor=#f4f4f4;strokeColor=#FF4D64;fontFamily=Ubuntu;fontSource=https%3A%2F%2Ffonts.googleapis.com%2Fcss%3Ffamily%3DUbuntu;fontSize=10;fontColor=#000;fontStyle=1" vertex="1" parent="jRN0X2SPoFClaqLHsVGo-1">
          <mxGeometry x="24" y="293" width="90" height="30" as="geometry" />
        </mxCell>
        <mxCell id="jRN0X2SPoFClaqLHsVGo-33" style="edgeStyle=orthogonalEdgeStyle;rounded=1;orthogonalLoop=1;jettySize=auto;html=1;entryX=0;entryY=0.5;entryDx=0;entryDy=0;entryPerimeter=0;exitX=0.493;exitY=0.676;exitDx=0;exitDy=0;exitPerimeter=0;endArrow=open;endFill=0;strokeColor=#000;" edge="1" parent="jRN0X2SPoFClaqLHsVGo-1" source="jRN0X2SPoFClaqLHsVGo-34" target="jRN0X2SPoFClaqLHsVGo-35">
          <mxGeometry relative="1" as="geometry">
            <Array as="points">
              <mxPoint x="69" y="365" />
            </Array>
          </mxGeometry>
        </mxCell>
        <mxCell id="jRN0X2SPoFClaqLHsVGo-34" value="" style="shape=line;html=1;strokeWidth=6;strokeColor=#FF4D64;" vertex="1" parent="jRN0X2SPoFClaqLHsVGo-1">
          <mxGeometry x="44" y="340" width="50" height="10" as="geometry" />
        </mxCell>
        <mxCell id="jRN0X2SPoFClaqLHsVGo-35" value="" style="shape=line;html=1;strokeWidth=6;strokeColor=#000;" vertex="1" parent="jRN0X2SPoFClaqLHsVGo-1">
          <mxGeometry x="90" y="360" width="120" height="10" as="geometry" />
        </mxCell>
        <mxCell id="jRN0X2SPoFClaqLHsVGo-36" value="Mengetuk petak kmap" style="rounded=1;whiteSpace=wrap;html=1;fillColor=#f4f4f4;strokeColor=#000;fontFamily=Ubuntu;fontSource=https%3A%2F%2Ffonts.googleapis.com%2Fcss%3Ffamily%3DUbuntu;fontSize=10;fontColor=#000;fontStyle=1" vertex="1" parent="jRN0X2SPoFClaqLHsVGo-1">
          <mxGeometry x="107.5" y="395" width="85" height="30" as="geometry" />
        </mxCell>
        <mxCell id="jRN0X2SPoFClaqLHsVGo-37" style="edgeStyle=orthogonalEdgeStyle;rounded=0;orthogonalLoop=1;jettySize=auto;html=1;exitX=0.5;exitY=1;exitDx=0;exitDy=0;entryX=0.5;entryY=0;entryDx=0;entryDy=0;endArrow=open;endFill=0;strokeColor=#000;" edge="1" parent="jRN0X2SPoFClaqLHsVGo-1" source="jRN0X2SPoFClaqLHsVGo-38" target="jRN0X2SPoFClaqLHsVGo-41">
          <mxGeometry relative="1" as="geometry" />
        </mxCell>
        <mxCell id="jRN0X2SPoFClaqLHsVGo-38" value="Mengubah atau menambahkan petak" style="rounded=1;whiteSpace=wrap;html=1;fillColor=#f4f4f4;strokeColor=#000;fontFamily=Ubuntu;fontSource=https%3A%2F%2Ffonts.googleapis.com%2Fcss%3Ffamily%3DUbuntu;fontSize=10;fontColor=#000;fontStyle=1" vertex="1" parent="jRN0X2SPoFClaqLHsVGo-1">
          <mxGeometry x="95" y="500" width="110" height="40" as="geometry" />
        </mxCell>
        <mxCell id="jRN0X2SPoFClaqLHsVGo-39" style="edgeStyle=orthogonalEdgeStyle;rounded=1;orthogonalLoop=1;jettySize=auto;html=1;exitX=0;exitY=0.5;exitDx=0;exitDy=0;entryX=0;entryY=0.5;entryDx=0;entryDy=0;endArrow=open;endFill=0;strokeColor=#000;" edge="1" parent="jRN0X2SPoFClaqLHsVGo-1" source="jRN0X2SPoFClaqLHsVGo-41" target="jRN0X2SPoFClaqLHsVGo-36">
          <mxGeometry relative="1" as="geometry">
            <Array as="points">
              <mxPoint x="60" y="585" />
              <mxPoint x="60" y="410" />
            </Array>
          </mxGeometry>
        </mxCell>
        <mxCell id="jRN0X2SPoFClaqLHsVGo-40" value="Ya" style="edgeLabel;html=1;align=center;verticalAlign=middle;resizable=0;points=[];spacingBottom=2;fontSize=10;fontFamily=Ubuntu;fontSource=https%3A%2F%2Ffonts.googleapis.com%2Fcss%3Ffamily%3DUbuntu;fontStyle=1" vertex="1" connectable="0" parent="jRN0X2SPoFClaqLHsVGo-39">
          <mxGeometry x="-0.8118" y="-3" relative="1" as="geometry">
            <mxPoint x="7" y="3" as="offset" />
          </mxGeometry>
        </mxCell>
        <mxCell id="jRN0X2SPoFClaqLHsVGo-41" value="" style="rhombus;whiteSpace=wrap;html=1;fontSize=10;fontFamily=Ubuntu;fillColor=#f4f4f4;strokeColor=#000;fontColor=#333333;rounded=0;fontSource=https%3A%2F%2Ffonts.googleapis.com%2Fcss%3Ffamily%3DUbuntu;" vertex="1" parent="jRN0X2SPoFClaqLHsVGo-1">
          <mxGeometry x="135" y="570" width="30" height="30" as="geometry" />
        </mxCell>
        <mxCell id="jRN0X2SPoFClaqLHsVGo-63" value="" style="ellipse;html=1;shape=endState;fillColor=#000;strokeColor=#000;strokeWidth=1;" vertex="1" parent="jRN0X2SPoFClaqLHsVGo-1">
          <mxGeometry x="135" y="628" width="30" height="30" as="geometry" />
        </mxCell>
        <mxCell id="jRN0X2SPoFClaqLHsVGo-69" style="rounded=1;orthogonalLoop=1;jettySize=auto;html=1;entryX=0.5;entryY=0;entryDx=0;entryDy=0;exitX=0.5;exitY=1;exitDx=0;exitDy=0;endArrow=open;endFill=0;strokeColor=#000;" edge="1" parent="jRN0X2SPoFClaqLHsVGo-1" source="jRN0X2SPoFClaqLHsVGo-41" target="jRN0X2SPoFClaqLHsVGo-63">
          <mxGeometry relative="1" as="geometry" />
        </mxCell>
        <mxCell id="jRN0X2SPoFClaqLHsVGo-70" value="Tidak" style="edgeLabel;html=1;align=center;verticalAlign=middle;resizable=0;points=[];fontSize=10;fontFamily=Ubuntu;fontSource=https%3A%2F%2Ffonts.googleapis.com%2Fcss%3Ffamily%3DUbuntu;spacingBottom=2;fontStyle=1;spacingTop=6;spacingLeft=2;" vertex="1" connectable="0" parent="jRN0X2SPoFClaqLHsVGo-69">
          <mxGeometry x="-0.5715" y="2" relative="1" as="geometry">
            <mxPoint x="13" y="3" as="offset" />
          </mxGeometry>
        </mxCell>
        <mxCell id="jRN0X2SPoFClaqLHsVGo-42" value="Sistem" style="swimlane;whiteSpace=wrap;html=1;fontFamily=Ubuntu;fontSource=https%3A%2F%2Ffonts.googleapis.com%2Fcss%3Ffamily%3DUbuntu;rounded=0;swimlaneFillColor=none;glass=0;shadow=1;fillColor=none;fontColor=#333333;strokeColor=#666666;sketch=1;curveFitting=1;jiggle=2;startSize=30;fontSize=13;" vertex="1" parent="1">
          <mxGeometry x="480" y="120" width="300" height="680" as="geometry" />
        </mxCell>
        <mxCell id="jRN0X2SPoFClaqLHsVGo-43" value="" style="rounded=0;orthogonalLoop=1;jettySize=auto;html=1;endArrow=open;endFill=0;strokeColor=#000;" edge="1" parent="jRN0X2SPoFClaqLHsVGo-42" source="jRN0X2SPoFClaqLHsVGo-44" target="jRN0X2SPoFClaqLHsVGo-45">
          <mxGeometry relative="1" as="geometry" />
        </mxCell>
        <mxCell id="jRN0X2SPoFClaqLHsVGo-44" value="Memproses aksi" style="rounded=1;whiteSpace=wrap;html=1;fillColor=#f4f4f4;strokeColor=#000;fontFamily=Ubuntu;fontSource=https%3A%2F%2Ffonts.googleapis.com%2Fcss%3Ffamily%3DUbuntu;fontSize=10;fontColor=#000;fontStyle=1" vertex="1" parent="jRN0X2SPoFClaqLHsVGo-42">
          <mxGeometry x="107.5" y="83" width="85" height="30" as="geometry" />
        </mxCell>
        <mxCell id="jRN0X2SPoFClaqLHsVGo-45" value="Mengarahkan pengguna ke fitur" style="rounded=1;whiteSpace=wrap;html=1;fillColor=#f4f4f4;strokeColor=#000;fontFamily=Ubuntu;fontSource=https%3A%2F%2Ffonts.googleapis.com%2Fcss%3Ffamily%3DUbuntu;fontSize=10;fontColor=#000;fontStyle=1" vertex="1" parent="jRN0X2SPoFClaqLHsVGo-42">
          <mxGeometry x="107.5" y="130" width="85" height="30" as="geometry" />
        </mxCell>
        <mxCell id="jRN0X2SPoFClaqLHsVGo-46" value="" style="edgeStyle=orthogonalEdgeStyle;rounded=0;orthogonalLoop=1;jettySize=auto;html=1;endArrow=open;endFill=0;strokeColor=#000;" edge="1" parent="jRN0X2SPoFClaqLHsVGo-42" source="jRN0X2SPoFClaqLHsVGo-47" target="jRN0X2SPoFClaqLHsVGo-48">
          <mxGeometry relative="1" as="geometry" />
        </mxCell>
        <mxCell id="jRN0X2SPoFClaqLHsVGo-47" value="Memproses aksi" style="rounded=1;whiteSpace=wrap;html=1;fillColor=#f4f4f4;strokeColor=#000;fontFamily=Ubuntu;fontSource=https%3A%2F%2Ffonts.googleapis.com%2Fcss%3Ffamily%3DUbuntu;fontSize=10;fontColor=#000;fontStyle=1" vertex="1" parent="jRN0X2SPoFClaqLHsVGo-42">
          <mxGeometry x="107.5" y="330" width="85" height="30" as="geometry" />
        </mxCell>
        <mxCell id="jRN0X2SPoFClaqLHsVGo-48" value="Menempelkan kmap ke layar" style="rounded=1;whiteSpace=wrap;html=1;fillColor=#f4f4f4;strokeColor=#000;fontFamily=Ubuntu;fontSource=https%3A%2F%2Ffonts.googleapis.com%2Fcss%3Ffamily%3DUbuntu;fontSize=10;fontColor=#000;fontStyle=1" vertex="1" parent="jRN0X2SPoFClaqLHsVGo-42">
          <mxGeometry x="107.5" y="395" width="85" height="30" as="geometry" />
        </mxCell>
        <mxCell id="jRN0X2SPoFClaqLHsVGo-49" style="edgeStyle=orthogonalEdgeStyle;rounded=0;orthogonalLoop=1;jettySize=auto;html=1;exitX=0.5;exitY=1;exitDx=0;exitDy=0;entryX=0.5;entryY=0;entryDx=0;entryDy=0;endArrow=open;endFill=0;strokeColor=#000;" edge="1" parent="jRN0X2SPoFClaqLHsVGo-42" source="jRN0X2SPoFClaqLHsVGo-50" target="jRN0X2SPoFClaqLHsVGo-55">
          <mxGeometry relative="1" as="geometry" />
        </mxCell>
        <mxCell id="jRN0X2SPoFClaqLHsVGo-50" value="Mengecek nilai pada petak" style="rounded=1;whiteSpace=wrap;html=1;fillColor=#f4f4f4;strokeColor=#000;fontFamily=Ubuntu;fontSource=https%3A%2F%2Ffonts.googleapis.com%2Fcss%3Ffamily%3DUbuntu;fontSize=10;fontColor=#000;fontStyle=1" vertex="1" parent="jRN0X2SPoFClaqLHsVGo-42">
          <mxGeometry x="107.5" y="450" width="85" height="30" as="geometry" />
        </mxCell>
        <mxCell id="jRN0X2SPoFClaqLHsVGo-51" style="rounded=0;orthogonalLoop=1;jettySize=auto;html=1;exitX=0;exitY=0.5;exitDx=0;exitDy=0;entryX=1;entryY=0.5;entryDx=0;entryDy=0;endArrow=open;endFill=0;strokeColor=#000;" edge="1" parent="jRN0X2SPoFClaqLHsVGo-42" source="jRN0X2SPoFClaqLHsVGo-55" target="jRN0X2SPoFClaqLHsVGo-57">
          <mxGeometry relative="1" as="geometry" />
        </mxCell>
        <mxCell id="jRN0X2SPoFClaqLHsVGo-52" value="Petak kosong" style="edgeLabel;html=1;align=center;verticalAlign=middle;resizable=0;points=[];fontSize=10;fontFamily=Ubuntu;fontSource=https%3A%2F%2Ffonts.googleapis.com%2Fcss%3Ffamily%3DUbuntu;fontStyle=1;spacingLeft=-3;spacingTop=-3;" vertex="1" connectable="0" parent="jRN0X2SPoFClaqLHsVGo-51">
          <mxGeometry x="0.0267" y="2" relative="1" as="geometry">
            <mxPoint x="8" y="-12" as="offset" />
          </mxGeometry>
        </mxCell>
        <mxCell id="jRN0X2SPoFClaqLHsVGo-53" style="rounded=0;orthogonalLoop=1;jettySize=auto;html=1;exitX=1;exitY=0.5;exitDx=0;exitDy=0;entryX=0;entryY=0.5;entryDx=0;entryDy=0;endArrow=open;endFill=0;strokeWidth=1;fontSize=9;fontFamily=Ubuntu;fontSource=https%3A%2F%2Ffonts.googleapis.com%2Fcss%3Ffamily%3DUbuntu;strokeColor=#000;" edge="1" parent="jRN0X2SPoFClaqLHsVGo-42" source="jRN0X2SPoFClaqLHsVGo-55" target="jRN0X2SPoFClaqLHsVGo-59">
          <mxGeometry relative="1" as="geometry" />
        </mxCell>
        <mxCell id="jRN0X2SPoFClaqLHsVGo-54" value="Bernilai 1" style="edgeLabel;html=1;align=center;verticalAlign=middle;resizable=0;points=[];fontSize=10;fontFamily=Ubuntu;fontSource=https%3A%2F%2Ffonts.googleapis.com%2Fcss%3Ffamily%3DUbuntu;spacingTop=-3;fontStyle=1;spacingLeft=4;" vertex="1" connectable="0" parent="jRN0X2SPoFClaqLHsVGo-53">
          <mxGeometry x="-0.3006" y="2" relative="1" as="geometry">
            <mxPoint x="2" y="-8" as="offset" />
          </mxGeometry>
        </mxCell>
        <mxCell id="jRN0X2SPoFClaqLHsVGo-55" value="" style="rhombus;whiteSpace=wrap;html=1;fontSize=10;fontFamily=Ubuntu;fillColor=#f4f4f4;strokeColor=#000;fontColor=#333333;rounded=0;fontSource=https%3A%2F%2Ffonts.googleapis.com%2Fcss%3Ffamily%3DUbuntu;" vertex="1" parent="jRN0X2SPoFClaqLHsVGo-42">
          <mxGeometry x="140" y="510" width="30" height="30" as="geometry" />
        </mxCell>
        <mxCell id="jRN0X2SPoFClaqLHsVGo-56" style="edgeStyle=orthogonalEdgeStyle;rounded=1;orthogonalLoop=1;jettySize=auto;html=1;exitX=0.5;exitY=1;exitDx=0;exitDy=0;entryX=0;entryY=0.5;entryDx=0;entryDy=0;endArrow=open;endFill=0;strokeColor=#000;" edge="1" parent="jRN0X2SPoFClaqLHsVGo-42" source="jRN0X2SPoFClaqLHsVGo-57" target="jRN0X2SPoFClaqLHsVGo-61">
          <mxGeometry relative="1" as="geometry" />
        </mxCell>
        <mxCell id="jRN0X2SPoFClaqLHsVGo-57" value="Ubah ke 1" style="rounded=1;whiteSpace=wrap;html=1;fillColor=#f4f4f4;strokeColor=#000;fontFamily=Ubuntu;fontSource=https%3A%2F%2Ffonts.googleapis.com%2Fcss%3Ffamily%3DUbuntu;fontSize=10;fontColor=#000;fontStyle=1" vertex="1" parent="jRN0X2SPoFClaqLHsVGo-42">
          <mxGeometry x="10" y="515" width="60" height="20" as="geometry" />
        </mxCell>
        <mxCell id="jRN0X2SPoFClaqLHsVGo-58" style="edgeStyle=orthogonalEdgeStyle;rounded=1;orthogonalLoop=1;jettySize=auto;html=1;exitX=0.5;exitY=1;exitDx=0;exitDy=0;entryX=1;entryY=0.5;entryDx=0;entryDy=0;endArrow=open;endFill=0;strokeColor=#000;" edge="1" parent="jRN0X2SPoFClaqLHsVGo-42" source="jRN0X2SPoFClaqLHsVGo-59" target="jRN0X2SPoFClaqLHsVGo-61">
          <mxGeometry relative="1" as="geometry" />
        </mxCell>
        <mxCell id="jRN0X2SPoFClaqLHsVGo-59" value="Kosongkan" style="rounded=1;whiteSpace=wrap;html=1;fillColor=#f4f4f4;strokeColor=#000;fontFamily=Ubuntu;fontSource=https%3A%2F%2Ffonts.googleapis.com%2Fcss%3Ffamily%3DUbuntu;fontSize=10;fontColor=#000;fontStyle=1" vertex="1" parent="jRN0X2SPoFClaqLHsVGo-42">
          <mxGeometry x="230" y="515" width="60" height="20" as="geometry" />
        </mxCell>
        <mxCell id="jRN0X2SPoFClaqLHsVGo-60" style="rounded=0;orthogonalLoop=1;jettySize=auto;html=1;exitX=0.5;exitY=1;exitDx=0;exitDy=0;entryX=0.5;entryY=0;entryDx=0;entryDy=0;endArrow=open;endFill=0;strokeColor=#000;" edge="1" parent="jRN0X2SPoFClaqLHsVGo-42" source="jRN0X2SPoFClaqLHsVGo-61" target="jRN0X2SPoFClaqLHsVGo-62">
          <mxGeometry relative="1" as="geometry" />
        </mxCell>
        <mxCell id="jRN0X2SPoFClaqLHsVGo-61" value="Petak di-update" style="rounded=1;whiteSpace=wrap;html=1;fillColor=#f4f4f4;strokeColor=#000;fontFamily=Ubuntu;fontSource=https%3A%2F%2Ffonts.googleapis.com%2Fcss%3Ffamily%3DUbuntu;fontSize=10;fontColor=#000;fontStyle=1" vertex="1" parent="jRN0X2SPoFClaqLHsVGo-42">
          <mxGeometry x="107.5" y="550" width="87.5" height="20" as="geometry" />
        </mxCell>
        <mxCell id="jRN0X2SPoFClaqLHsVGo-62" value="Menampilkan hasil" style="rounded=1;whiteSpace=wrap;html=1;fillColor=#f4f4f4;strokeColor=#000;fontFamily=Ubuntu;fontSource=https%3A%2F%2Ffonts.googleapis.com%2Fcss%3Ffamily%3DUbuntu;fontSize=10;fontColor=#000;fontStyle=1" vertex="1" parent="jRN0X2SPoFClaqLHsVGo-42">
          <mxGeometry x="99.36999999999999" y="590" width="103.75" height="20" as="geometry" />
        </mxCell>
        <mxCell id="jRN0X2SPoFClaqLHsVGo-64" style="rounded=0;orthogonalLoop=1;jettySize=auto;html=1;entryX=0;entryY=0.5;entryDx=0;entryDy=0;endArrow=open;endFill=0;strokeColor=#000;" edge="1" parent="1" source="jRN0X2SPoFClaqLHsVGo-4" target="jRN0X2SPoFClaqLHsVGo-44">
          <mxGeometry relative="1" as="geometry" />
        </mxCell>
        <mxCell id="jRN0X2SPoFClaqLHsVGo-65" style="rounded=0;orthogonalLoop=1;jettySize=auto;html=1;entryX=1;entryY=0.5;entryDx=0;entryDy=0;strokeColor=#000;endArrow=open;endFill=0;" edge="1" parent="1" source="jRN0X2SPoFClaqLHsVGo-45" target="jRN0X2SPoFClaqLHsVGo-6">
          <mxGeometry relative="1" as="geometry" />
        </mxCell>
        <mxCell id="jRN0X2SPoFClaqLHsVGo-66" style="edgeStyle=orthogonalEdgeStyle;rounded=1;orthogonalLoop=1;jettySize=auto;html=1;entryX=0;entryY=0.5;entryDx=0;entryDy=0;endArrow=open;endFill=0;exitX=0.5;exitY=0.617;exitDx=0;exitDy=0;exitPerimeter=0;spacingBottom=0;spacingLeft=0;strokeColor=#000;" edge="1" parent="1" source="jRN0X2SPoFClaqLHsVGo-35" target="jRN0X2SPoFClaqLHsVGo-47">
          <mxGeometry relative="1" as="geometry">
            <Array as="points">
              <mxPoint x="330" y="500" />
              <mxPoint x="520" y="500" />
              <mxPoint x="520" y="465" />
            </Array>
          </mxGeometry>
        </mxCell>
        <mxCell id="jRN0X2SPoFClaqLHsVGo-67" style="edgeStyle=orthogonalEdgeStyle;rounded=0;orthogonalLoop=1;jettySize=auto;html=1;entryX=1;entryY=0.5;entryDx=0;entryDy=0;endArrow=open;endFill=0;strokeColor=#000;" edge="1" parent="1" source="jRN0X2SPoFClaqLHsVGo-48" target="jRN0X2SPoFClaqLHsVGo-36">
          <mxGeometry relative="1" as="geometry" />
        </mxCell>
        <mxCell id="jRN0X2SPoFClaqLHsVGo-68" style="edgeStyle=orthogonalEdgeStyle;rounded=1;orthogonalLoop=1;jettySize=auto;html=1;exitX=0.5;exitY=1;exitDx=0;exitDy=0;entryX=0;entryY=0.5;entryDx=0;entryDy=0;endArrow=open;endFill=0;strokeColor=#000;" edge="1" parent="1" source="jRN0X2SPoFClaqLHsVGo-36" target="jRN0X2SPoFClaqLHsVGo-50">
          <mxGeometry relative="1" as="geometry" />
        </mxCell>
        <mxCell id="jRN0X2SPoFClaqLHsVGo-71" style="edgeStyle=orthogonalEdgeStyle;rounded=1;orthogonalLoop=1;jettySize=auto;html=1;exitX=0;exitY=0.5;exitDx=0;exitDy=0;entryX=1;entryY=0.5;entryDx=0;entryDy=0;endArrow=open;endFill=0;strokeColor=#000;" edge="1" parent="1" source="jRN0X2SPoFClaqLHsVGo-62" target="jRN0X2SPoFClaqLHsVGo-38">
          <mxGeometry relative="1" as="geometry">
            <Array as="points">
              <mxPoint x="440" y="720" />
              <mxPoint x="440" y="640" />
            </Array>
          </mxGeometry>
        </mxCell>
      </root>
    </mxGraphModel>
  </diagram>
</mxfile>
